<svg width="24" height="24" viewBox="0 0 24 24" fill="none" xmlns="http://www.w3.org/2000/svg">
<path d="M20.7659 0H3.23422C1.44814 0 0.000167847 1.44791 0.000167847 3.23405V20.7658C0.000167847 22.552 1.44808 23.9999 3.23422 23.9999H11.8808L11.8955 15.4236H9.66738C9.37782 15.4236 9.1428 15.1895 9.14169 14.8999L9.131 12.1354C9.12989 11.8443 9.36561 11.6077 9.65675 11.6077H11.8808V8.93651C11.8808 5.83661 13.774 4.14869 16.5393 4.14869H18.8085C19.0988 4.14869 19.3342 4.38406 19.3342 4.67444V7.00547C19.3342 7.29573 19.099 7.53104 18.8088 7.53122L17.4162 7.53187C15.9124 7.53187 15.6212 8.24648 15.6212 9.29522V11.6078H18.9257C19.2405 11.6078 19.4848 11.8827 19.4477 12.1954L19.1201 14.9599C19.0887 15.2244 18.8644 15.4237 18.598 15.4237H15.6359L15.6212 24H20.766C22.5521 24 24 22.5521 24 20.766V3.23405C23.9999 1.44791 22.552 0 20.7659 0Z" fill="#475993"/>
</svg>
