<svg width="146" height="55" viewBox="0 0 146 55" fill="none" xmlns="http://www.w3.org/2000/svg">
<path d="M28.8333 34C27.9167 34 27.175 34.75 27.175 35.6666C27.175 36.5833 27.9167 37.3333 28.8333 37.3333C29.75 37.3333 30.5 36.5833 30.5 35.6666C30.5 34.75 29.75 34 28.8333 34ZM23.8333 20.6666V22.3333H25.5L28.5 28.6583L27.375 30.7C27.2417 30.9333 27.1667 31.2083 27.1667 31.5C27.1667 32.4166 27.9167 33.1666 28.8333 33.1666H38.8333V31.5H29.1833C29.0667 31.5 28.975 31.4083 28.975 31.2916L29 31.1916L29.75 29.8333H35.9583C36.5833 29.8333 37.1333 29.4916 37.4167 28.975L40.4 23.5666C40.4667 23.45 40.5 23.3083 40.5 23.1666C40.5 22.7083 40.125 22.3333 39.6667 22.3333H27.3417L26.5583 20.6666H23.8333ZM37.1667 34C36.25 34 35.5083 34.75 35.5083 35.6666C35.5083 36.5833 36.25 37.3333 37.1667 37.3333C38.0833 37.3333 38.8333 36.5833 38.8333 35.6666C38.8333 34.75 38.0833 34 37.1667 34Z" fill="#F15A29"/>
<path d="M20.1538 21.836C20.1538 22.916 19.8538 23.852 19.2538 24.644C18.6778 25.412 17.8378 26.012 16.7338 26.444C18.1258 26.9 19.1698 27.572 19.8658 28.46C20.5618 29.348 20.9098 30.416 20.9098 31.664C20.9098 33.992 20.0458 35.72 18.3178 36.848C16.6138 37.976 14.1418 38.54 10.9018 38.54C10.4698 38.54 9.97783 38.528 9.42583 38.504C8.89783 38.48 8.34583 38.432 7.76983 38.36C7.21783 38.312 6.65383 38.228 6.07783 38.108C5.52583 38.012 5.02183 37.88 4.56583 37.712C3.31783 37.256 2.69383 36.44 2.69383 35.264V18.128C2.69383 17.648 2.81383 17.276 3.05383 17.012C3.31783 16.748 3.68983 16.544 4.16983 16.4C4.96183 16.136 5.94583 15.944 7.12183 15.824C8.29783 15.68 9.50983 15.608 10.7578 15.608C13.7578 15.608 16.0738 16.124 17.7058 17.156C19.3378 18.164 20.1538 19.724 20.1538 21.836ZM15.1498 31.412C15.1498 29.708 14.0578 28.856 11.8738 28.856H8.16583V33.896C8.54983 33.992 9.02983 34.064 9.60583 34.112C10.1818 34.16 10.7338 34.184 11.2618 34.184C12.4138 34.184 13.3498 33.968 14.0698 33.536C14.7898 33.08 15.1498 32.372 15.1498 31.412ZM8.16583 24.86H11.5138C12.4498 24.86 13.1818 24.644 13.7098 24.212C14.2378 23.78 14.5018 23.144 14.5018 22.304C14.5018 21.536 14.1898 20.948 13.5658 20.54C12.9658 20.108 12.0538 19.892 10.8298 19.892C10.3738 19.892 9.89383 19.916 9.38983 19.964C8.88583 19.988 8.47783 20.024 8.16583 20.072V24.86ZM48.8394 33.68C48.2874 32.48 47.6514 30.92 46.9314 29C46.2354 27.056 45.5034 24.548 44.7354 21.476C45.0234 21.164 45.4194 20.9 45.9234 20.684C46.4514 20.444 47.0154 20.324 47.6154 20.324C48.3834 20.324 49.0074 20.492 49.4874 20.828C49.9674 21.14 50.3394 21.728 50.6034 22.592C51.1314 24.344 51.6594 26.072 52.1874 27.776C52.7394 29.48 53.2914 31.196 53.8434 32.924H53.9874C54.2754 32.108 54.5754 31.22 54.8874 30.26C55.1994 29.276 55.4994 28.268 55.7874 27.236C56.0754 26.18 56.3394 25.124 56.5794 24.068C56.8434 22.988 57.0714 21.944 57.2634 20.936C58.0074 20.528 58.7874 20.324 59.6034 20.324C60.3714 20.324 61.0314 20.492 61.5834 20.828C62.1354 21.164 62.4114 21.716 62.4114 22.484C62.4114 23.348 62.2554 24.452 61.9434 25.796C61.6554 27.116 61.2594 28.508 60.7554 29.972C60.2754 31.412 59.7234 32.852 59.0994 34.292C58.4994 35.708 57.8754 36.956 57.2274 38.036C55.8834 40.316 54.6714 42.008 53.5914 43.112C52.5114 44.24 51.4194 44.804 50.3154 44.804C49.4274 44.804 48.6954 44.528 48.1194 43.976C47.5434 43.448 47.1954 42.764 47.0754 41.924C47.8434 41.252 48.6354 40.46 49.4514 39.548C50.2914 38.66 50.9994 37.76 51.5754 36.848C51.1674 36.728 50.7354 36.464 50.2794 36.056C49.8474 35.624 49.3674 34.832 48.8394 33.68ZM76.0646 38.072C75.1526 38.072 74.4206 37.808 73.8686 37.28C73.3406 36.728 73.0766 35.996 73.0766 35.084V19.172C73.0766 18.26 73.3406 17.54 73.8686 17.012C74.4206 16.46 75.1526 16.184 76.0646 16.184H87.9806C88.1246 16.424 88.2566 16.724 88.3766 17.084C88.4966 17.444 88.5566 17.852 88.5566 18.308C88.5566 19.1 88.3766 19.688 88.0166 20.072C87.6806 20.456 87.2006 20.648 86.5766 20.648H78.5846V24.68H86.9366C87.0806 24.92 87.2126 25.22 87.3326 25.58C87.4526 25.94 87.5126 26.348 87.5126 26.804C87.5126 27.596 87.3446 28.184 87.0086 28.568C86.6726 28.928 86.1926 29.108 85.5686 29.108H78.5846V33.608H88.1246C88.2686 33.848 88.4006 34.16 88.5206 34.544C88.6406 34.928 88.7006 35.348 88.7006 35.804C88.7006 36.596 88.5206 37.172 88.1606 37.532C87.8246 37.892 87.3566 38.072 86.7566 38.072H76.0646ZM99.3898 34.508C99.9178 34.508 100.434 34.46 100.938 34.364C101.466 34.244 101.862 34.1 102.126 33.932V30.62L99.1738 30.872C98.4058 30.944 97.7818 31.124 97.3018 31.412C96.8458 31.676 96.6178 32.084 96.6178 32.636C96.6178 33.212 96.8338 33.668 97.2658 34.004C97.6978 34.34 98.4058 34.508 99.3898 34.508ZM99.1738 20.144C100.422 20.144 101.55 20.276 102.558 20.54C103.59 20.78 104.466 21.164 105.186 21.692C105.906 22.22 106.458 22.892 106.842 23.708C107.25 24.524 107.454 25.484 107.454 26.588V34.724C107.454 35.348 107.286 35.852 106.95 36.236C106.638 36.596 106.254 36.908 105.798 37.172C105.054 37.628 104.142 37.976 103.062 38.216C101.982 38.456 100.758 38.576 99.3898 38.576C96.9178 38.576 94.9498 38.108 93.4858 37.172C92.0218 36.212 91.2898 34.76 91.2898 32.816C91.2898 31.16 91.7818 29.9 92.7658 29.036C93.7498 28.172 95.2618 27.632 97.3018 27.416L102.09 26.912V26.516C102.09 25.748 101.778 25.184 101.154 24.824C100.53 24.464 99.6298 24.284 98.4538 24.284C97.5418 24.284 96.6418 24.392 95.7538 24.608C94.8898 24.824 94.1098 25.076 93.4138 25.364C93.1258 25.172 92.8738 24.884 92.6578 24.5C92.4658 24.092 92.3698 23.66 92.3698 23.204C92.3698 22.148 92.9218 21.392 94.0258 20.936C94.7218 20.672 95.5258 20.48 96.4378 20.36C97.3738 20.216 98.2858 20.144 99.1738 20.144ZM111.851 38C111.515 37.688 111.239 37.328 111.023 36.92C110.831 36.512 110.735 36.056 110.735 35.552C110.735 35.096 110.831 34.664 111.023 34.256C111.239 33.824 111.503 33.416 111.815 33.032L118.583 24.968H111.455C111.335 24.728 111.203 24.428 111.059 24.068C110.939 23.684 110.879 23.276 110.879 22.844C110.879 22.076 111.047 21.524 111.383 21.188C111.743 20.852 112.199 20.684 112.751 20.684H124.127C124.463 20.996 124.739 21.356 124.955 21.764C125.171 22.172 125.279 22.64 125.279 23.168C125.279 23.6 125.171 24.032 124.955 24.464C124.763 24.872 124.511 25.268 124.199 25.652L117.539 33.752H125.099C125.243 33.968 125.375 34.268 125.495 34.652C125.615 35.036 125.675 35.432 125.675 35.84C125.675 36.608 125.495 37.16 125.135 37.496C124.799 37.832 124.355 38 123.803 38H111.851ZM131.316 33.68C130.764 32.48 130.128 30.92 129.408 29C128.712 27.056 127.98 24.548 127.212 21.476C127.5 21.164 127.896 20.9 128.4 20.684C128.928 20.444 129.492 20.324 130.092 20.324C130.86 20.324 131.484 20.492 131.964 20.828C132.444 21.14 132.816 21.728 133.08 22.592C133.608 24.344 134.136 26.072 134.664 27.776C135.216 29.48 135.768 31.196 136.32 32.924H136.464C136.752 32.108 137.052 31.22 137.364 30.26C137.676 29.276 137.976 28.268 138.264 27.236C138.552 26.18 138.816 25.124 139.056 24.068C139.32 22.988 139.548 21.944 139.74 20.936C140.484 20.528 141.264 20.324 142.08 20.324C142.848 20.324 143.508 20.492 144.06 20.828C144.612 21.164 144.888 21.716 144.888 22.484C144.888 23.348 144.732 24.452 144.42 25.796C144.132 27.116 143.736 28.508 143.232 29.972C142.752 31.412 142.2 32.852 141.576 34.292C140.976 35.708 140.352 36.956 139.704 38.036C138.36 40.316 137.148 42.008 136.068 43.112C134.988 44.24 133.896 44.804 132.792 44.804C131.904 44.804 131.172 44.528 130.596 43.976C130.02 43.448 129.672 42.764 129.552 41.924C130.32 41.252 131.112 40.46 131.928 39.548C132.768 38.66 133.476 37.76 134.052 36.848C133.644 36.728 133.212 36.464 132.756 36.056C132.324 35.624 131.844 34.832 131.316 33.68Z" fill="#FF4F37"/>
</svg>
