<svg width="48" height="48" viewBox="0 0 48 48" fill="none" xmlns="http://www.w3.org/2000/svg">
<path fill-rule="evenodd" clip-rule="evenodd" d="M30.319 26.4326C32.7628 23.2941 32.542 18.7535 29.6569 15.8683C26.5327 12.7441 21.4673 12.7441 18.3431 15.8683C15.219 18.9925 15.219 24.0578 18.3431 27.182C21.2283 30.0672 25.769 30.2879 28.9075 27.8442C28.921 27.8595 28.9351 27.8745 28.9497 27.8891L33.1924 32.1317C33.5829 32.5223 34.2161 32.5223 34.6066 32.1317C34.9971 31.7412 34.9971 31.1081 34.6066 30.7175L30.364 26.4749C30.3493 26.4603 30.3343 26.4462 30.319 26.4326ZM28.2426 17.2825C30.5858 19.6257 30.5858 23.4246 28.2426 25.7678C25.8995 28.1109 22.1005 28.1109 19.7574 25.7678C17.4142 23.4246 17.4142 19.6257 19.7574 17.2825C22.1005 14.9394 25.8995 14.9394 28.2426 17.2825Z" fill="#4F4F4F"/>
</svg>
